#N canvas 1543 82 377 309 12;
#N canvas 130 558 1372 464 controlIn 0;
#X floatatom 30 230 5 0 0 0 - - -, f 5;
#X obj 30 80 ctlin 0 1;
#X floatatom 130 230 5 0 0 0 - - -, f 5;
#X floatatom 230 230 5 0 0 0 - - -, f 5;
#X floatatom 330 230 5 0 0 0 - - -, f 5;
#X obj 130 80 ctlin 1 1;
#X obj 230 80 ctlin 2 1;
#X obj 330 80 ctlin 3 1;
#X obj 30 260 s val0;
#X obj 130 260 s val1;
#X obj 230 260 s val2;
#X obj 330 260 s val3;
#X obj 1030 190 loadbang;
#X obj 30 170 line;
#X obj 130 170 line;
#X obj 230 170 line;
#X obj 330 170 line;
#X floatatom 30 110 5 0 0 0 - - -, f 5;
#X floatatom 130 110 5 0 0 0 - - -, f 5;
#X floatatom 230 110 5 0 0 0 - - -, f 5;
#X floatatom 330 110 5 0 0 0 - - -, f 5;
#X obj 30 200 i;
#X obj 30 140 pack;
#X floatatom 1060 110 5 0 0 0 - - -, f 5;
#X obj 130 200 i;
#X obj 230 200 i;
#X obj 330 200 i;
#X obj 130 140 pack;
#X obj 230 140 pack;
#X obj 330 140 pack;
#X msg 1060 80 100;
#X floatatom 430 230 5 0 0 0 - - -, f 5;
#X obj 430 170 line;
#X floatatom 430 110 5 0 0 0 - - -, f 5;
#X obj 430 200 i;
#X obj 430 140 pack;
#X obj 430 260 s val4;
#X obj 430 80 ctlin 4 1;
#X floatatom 530 230 5 0 0 0 - - -, f 5;
#X obj 530 170 line;
#X floatatom 530 110 5 0 0 0 - - -, f 5;
#X obj 530 200 i;
#X obj 530 140 pack;
#X obj 530 80 ctlin 5 1;
#X obj 530 260 s val5;
#X floatatom 630 230 5 0 0 0 - - -, f 5;
#X obj 630 170 line;
#X floatatom 630 110 5 0 0 0 - - -, f 5;
#X obj 630 200 i;
#X obj 630 140 pack;
#X floatatom 730 230 5 0 0 0 - - -, f 5;
#X obj 730 170 line;
#X floatatom 730 110 5 0 0 0 - - -, f 5;
#X obj 730 200 i;
#X obj 730 140 pack;
#X floatatom 830 230 5 0 0 0 - - -, f 5;
#X obj 830 170 line;
#X floatatom 830 110 5 0 0 0 - - -, f 5;
#X obj 830 200 i;
#X obj 830 140 pack;
#X floatatom 930 230 5 0 0 0 - - -, f 5;
#X obj 930 170 line;
#X floatatom 930 110 5 0 0 0 - - -, f 5;
#X obj 930 200 i;
#X obj 930 140 pack;
#X obj 630 80 ctlin 6 1;
#X obj 730 80 ctlin 7 1;
#X obj 830 80 ctlin 8 1;
#X obj 930 80 ctlin 9 1;
#X obj 630 260 s val6;
#X obj 730 260 s val7;
#X obj 830 260 s val8;
#X obj 930 260 s val9;
#X connect 0 0 8 0;
#X connect 1 0 17 0;
#X connect 2 0 9 0;
#X connect 3 0 10 0;
#X connect 4 0 11 0;
#X connect 5 0 18 0;
#X connect 6 0 19 0;
#X connect 7 0 20 0;
#X connect 12 0 4 0;
#X connect 12 0 3 0;
#X connect 12 0 2 0;
#X connect 12 0 0 0;
#X connect 12 0 30 0;
#X connect 12 0 31 0;
#X connect 12 0 38 0;
#X connect 12 0 45 0;
#X connect 12 0 50 0;
#X connect 12 0 55 0;
#X connect 12 0 60 0;
#X connect 13 0 21 0;
#X connect 14 0 24 0;
#X connect 15 0 25 0;
#X connect 16 0 26 0;
#X connect 17 0 22 0;
#X connect 18 0 27 0;
#X connect 19 0 28 0;
#X connect 20 0 29 0;
#X connect 21 0 0 0;
#X connect 22 0 13 0;
#X connect 23 0 22 1;
#X connect 23 0 27 1;
#X connect 23 0 28 1;
#X connect 23 0 29 1;
#X connect 23 0 35 1;
#X connect 23 0 42 1;
#X connect 23 0 49 1;
#X connect 23 0 54 1;
#X connect 23 0 59 1;
#X connect 23 0 64 1;
#X connect 24 0 2 0;
#X connect 25 0 3 0;
#X connect 26 0 4 0;
#X connect 27 0 14 0;
#X connect 28 0 15 0;
#X connect 29 0 16 0;
#X connect 30 0 23 0;
#X connect 31 0 36 0;
#X connect 32 0 34 0;
#X connect 33 0 35 0;
#X connect 34 0 31 0;
#X connect 35 0 32 0;
#X connect 37 0 33 0;
#X connect 38 0 44 0;
#X connect 39 0 41 0;
#X connect 40 0 42 0;
#X connect 41 0 38 0;
#X connect 42 0 39 0;
#X connect 43 0 40 0;
#X connect 45 0 69 0;
#X connect 46 0 48 0;
#X connect 47 0 49 0;
#X connect 48 0 45 0;
#X connect 49 0 46 0;
#X connect 50 0 70 0;
#X connect 51 0 53 0;
#X connect 52 0 54 0;
#X connect 53 0 50 0;
#X connect 54 0 51 0;
#X connect 55 0 71 0;
#X connect 56 0 58 0;
#X connect 57 0 59 0;
#X connect 58 0 55 0;
#X connect 59 0 56 0;
#X connect 60 0 72 0;
#X connect 61 0 63 0;
#X connect 62 0 64 0;
#X connect 63 0 60 0;
#X connect 64 0 61 0;
#X connect 65 0 47 0;
#X connect 66 0 52 0;
#X connect 67 0 57 0;
#X connect 68 0 62 0;
#X restore 80 40 pd controlIn;
#N canvas 1370 95 409 482 arrays 0;
#N canvas 1415 428 450 325 a12 0;
#N canvas 0 0 450 300 (subpatch) 0;
#X array array12 127 float 23 black #ff0000;
#A 0 92 83 77 71 66 62 58 54 50 45 41 37 33 28 24 20 16 12 8 4 0 0
0 0 0 0 0 0 0 0 0 0 0 0 0 0 0 0 0 0 0 0 0 0 0 0 0 0 0 0 0 0 0 0 0 0
0 0 0 0 0 0 0 0 0 0 0 0 0 0 0 0 0 0 0 0 0 0 0 0 0 0 0 0 0 0 0 0 0 0
0 0 0 0 0 0 0 0 0 0 0 0 0 0 0 0 4 8 12 16 20 24 28 33 37 41 45 50 54
58 62 66 71 77 83 92 100;
#X coords 0 100 127 0 299 99 1;
#X restore 110 20 graph;
#X msg 10 150 \; array12 0 92 83 77 71 66 62 58 54 50 45 41 37 33 28
24 20 16 12 8 4 0 0 0 0 0 0 0 0 0 0 0 0 0 0 0 0 0 0 0 0 0 0 0 0 0 0
0 0 0 0 0 0 0 0 0 0 0 0 0 0 0 0 0 0 0 0 0 0 0 0 0 0 0 0 0 0 0 0 0 0
0 0 0 0 0 0 0 0 0 0 0 0 0 0 0 0 0 0 0 0 0 0 0 0 0 0 4 8 12 16 20 24
28 33 37 41 45 50 54 58 62 66 71 77 83 92 100;
#X obj 10 100 loadbang;
#X connect 2 0 1 0;
#X restore 140 180 pd a12;
#N canvas 1414 607 450 350 a1 0;
#N canvas 0 0 450 300 (subpatch) 0;
#X array array1 127 float 23 black #ff0000;
#A 0 50 54 58 62 66 71 77 83 92 100 92 83 77 71 66 62 58 54 50 45 41
37 33 28 24 20 16 12 8 4 0 0 0 0 0 0 0 0 0 0 0 0 0 0 0 0 0 0 0 0 0
0 0 0 0 0 0 0 0 0 0 0 0 0 0 0 0 0 0 0 0 0 0 0 0 0 0 0 0 0 0 0 0 0 0
0 0 0 0 0 0 0 0 0 0 0 0 0 0 0 0 0 0 0 0 0 0 0 0 0 0 0 0 0 0 0 4 8 12
16 20 24 28 33 37 41 45;
#X coords 0 100 127 0 299 99 1;
#X restore 110 20 graph;
#X obj 10 100 loadbang;
#X msg 10 150 \; array1 0 50 54 58 62 66 71 77 83 92 100 92 83 77 71
66 62 58 54 50 45 41 37 33 28 24 20 16 12 8 4 0 0 0 0 0 0 0 0 0 0 0
0 0 0 0 0 0 0 0 0 0 0 0 0 0 0 0 0 0 0 0 0 0 0 0 0 0 0 0 0 0 0 0 0 0
0 0 0 0 0 0 0 0 0 0 0 0 0 0 0 0 0 0 0 0 0 0 0 0 0 0 0 0 0 0 0 0 0 0
0 0 0 0 0 0 0 4 8 12 16 20 24 28 33 37 41 45;
#X connect 1 0 2 0;
#X restore 100 80 pd a1;
#N canvas 1415 428 450 325 a2 0;
#N canvas 0 0 450 300 (subpatch) 0;
#X array array2 127 float 23 black #ff0000;
#A 0 12 16 20 24 28 33 37 41 45 50 54 58 62 66 71 77 83 92 100 92 83
77 71 66 62 58 54 50 45 41 37 33 28 24 20 16 12 8 4 0 0 0 0 0 0 0 0
0 0 0 0 0 0 0 0 0 0 0 0 0 0 0 0 0 0 0 0 0 0 0 0 0 0 0 0 0 0 0 0 0 0
0 0 0 0 0 0 0 0 0 0 0 0 0 0 0 0 0 0 0 0 0 0 0 0 0 0 0 0 0 0 0 0 0 0
0 0 0 0 0 0 0 0 0 0 4 8;
#X coords 0 100 127 0 299 99 1;
#X restore 110 20 graph;
#X obj 10 100 loadbang;
#X msg 10 150 \; array2 0 12 16 20 24 28 33 37 41 45 50 54 58 62 66
71 77 83 92 100 92 83 77 71 66 62 58 54 50 45 41 37 33 28 24 20 16
12 8 4 0 0 0 0 0 0 0 0 0 0 0 0 0 0 0 0 0 0 0 0 0 0 0 0 0 0 0 0 0 0
0 0 0 0 0 0 0 0 0 0 0 0 0 0 0 0 0 0 0 0 0 0 0 0 0 0 0 0 0 0 0 0 0 0
0 0 0 0 0 0 0 0 0 0 0 0 0 0 0 0 0 0 0 0 0 0 4 8;
#X connect 1 0 2 0;
#X restore 100 100 pd a2;
#N canvas 1415 437 450 350 a3 0;
#N canvas 0 0 450 300 (subpatch) 0;
#X array array3 127 float 23 black #ff0000;
#A 0 0 0 0 0 0 0 0 0 4 8 12 16 20 24 28 33 37 41 45 50 54 58 62 66
71 77 83 92 100 92 83 77 71 66 62 58 54 50 45 41 37 33 28 24 20 16
12 8 4 0 0 0 0 0 0 0 0 0 0 0 0 0 0 0 0 0 0 0 0 0 0 0 0 0 0 0 0 0 0
0 0 0 0 0 0 0 0 0 0 0 0 0 0 0 0 0 0 0 0 0 0 0 0 0 0 0 0 0 0 0 0 0 0
0 0 0 0 0 0 0 0 0 0 0 0 0 0;
#X coords 0 100 127 0 299 99 1;
#X restore 110 20 graph;
#X obj 10 100 loadbang;
#X msg 10 150 \; array3 0 0 0 0 0 0 0 0 0 4 8 12 16 20 24 28 33 37
41 45 50 54 58 62 66 71 77 83 92 100 92 83 77 71 66 62 58 54 50 45
41 37 33 28 24 20 16 12 8 4 0 0 0 0 0 0 0 0 0 0 0 0 0 0 0 0 0 0 0 0
0 0 0 0 0 0 0 0 0 0 0 0 0 0 0 0 0 0 0 0 0 0 0 0 0 0 0 0 0 0 0 0 0 0
0 0 0 0 0 0 0 0 0 0 0 0 0 0 0 0 0 0 0 0 0 0 0 0;
#X connect 1 0 2 0;
#X restore 100 120 pd a3;
#N canvas 1415 428 450 325 a10 0;
#N canvas 0 0 450 300 (subpatch) 0;
#X array array10 127 float 23 black #ff0000;
#A 0 4 0 0 0 0 0 0 0 0 0 0 0 0 0 0 0 0 0 0 0 0 0 0 0 0 0 0 0 0 0 0
0 0 0 0 0 0 0 0 0 0 0 0 0 0 0 0 0 0 0 0 0 0 0 0 0 0 0 0 0 0 0 0 0 0
0 0 0 0 0 0 0 0 0 0 0 0 0 0 0 0 0 0 0 0 0 0 4 8 12 16 20 24 28 33 37
41 45 50 54 58 62 66 71 77 83 92 100 92 83 77 71 66 62 58 54 50 45
41 37 33 28 24 20 16 12 8;
#X coords 0 100 127 0 299 99 1;
#X restore 110 20 graph;
#X obj 10 100 loadbang;
#X msg 10 150 \; array10 0 4 0 0 0 0 0 0 0 0 0 0 0 0 0 0 0 0 0 0 0
0 0 0 0 0 0 0 0 0 0 0 0 0 0 0 0 0 0 0 0 0 0 0 0 0 0 0 0 0 0 0 0 0 0
0 0 0 0 0 0 0 0 0 0 0 0 0 0 0 0 0 0 0 0 0 0 0 0 0 0 0 0 0 0 0 0 0 4
8 12 16 20 24 28 33 37 41 45 50 54 58 62 66 71 77 83 92 100 92 83 77
71 66 62 58 54 50 45 41 37 33 28 24 20 16 12 8;
#X connect 1 0 2 0;
#X restore 140 140 pd a10;
#N canvas 1398 534 450 350 a11 0;
#N canvas 0 0 450 300 (subpatch) 0;
#X array array11 127 float 23 black #ff0000;
#A 0 41 37 33 28 24 20 16 12 8 4 0 0 0 0 0 0 0 0 0 0 0 0 0 0 0 0 0
0 0 0 0 0 0 0 0 0 0 0 0 0 0 0 0 0 0 0 0 0 0 0 0 0 0 0 0 0 0 0 0 0 0
0 0 0 0 0 0 0 0 0 0 0 0 0 0 0 0 0 0 0 0 0 0 0 0 0 0 0 0 0 0 0 0 0 0
0 4 8 12 16 20 24 28 33 37 41 45 50 54 58 62 66 71 77 83 92 100 92
83 77 71 66 62 58 54 50 45;
#X coords 0 100 127 0 299 99 1;
#X restore 110 20 graph;
#X obj 10 100 loadbang;
#X msg 10 150 \; array11 0 41 37 33 28 24 20 16 12 8 4 0 0 0 0 0 0
0 0 0 0 0 0 0 0 0 0 0 0 0 0 0 0 0 0 0 0 0 0 0 0 0 0 0 0 0 0 0 0 0 0
0 0 0 0 0 0 0 0 0 0 0 0 0 0 0 0 0 0 0 0 0 0 0 0 0 0 0 0 0 0 0 0 0 0
0 0 0 0 0 0 0 0 0 0 0 0 4 8 12 16 20 24 28 33 37 41 45 50 54 58 62
66 71 77 83 92 100 92 83 77 71 66 62 58 54 50 45;
#X connect 1 0 2 0;
#X restore 140 160 pd a11;
#N canvas 1415 437 450 350 a4 0;
#N canvas 0 0 450 300 (subpatch) 0;
#X array array4 127 float 23 black #ff0000;
#A 0 0 0 0 0 0 0 0 0 0 0 0 0 0 0 0 0 0 0 4 8 12 16 20 24 28 33 37 41
45 50 54 58 62 66 71 77 83 92 100 92 83 77 71 66 62 58 54 50 45 41
37 33 28 24 20 16 12 8 4 0 0 0 0 0 0 0 0 0 0 0 0 0 0 0 0 0 0 0 0 0
0 0 0 0 0 0 0 0 0 0 0 0 0 0 0 0 0 0 0 0 0 0 0 0 0 0 0 0 0 0 0 0 0 0
0 0 0 0 0 0 0 0 0 0 0 0 0;
#X coords 0 100 127 0 299 99 1;
#X restore 110 20 graph;
#X obj 10 100 loadbang;
#X msg 10 150 \; array4 0 0 0 0 0 0 0 0 0 0 0 0 0 0 0 0 0 0 0 4 8 12
16 20 24 28 33 37 41 45 50 54 58 62 66 71 77 83 92 100 92 83 77 71
66 62 58 54 50 45 41 37 33 28 24 20 16 12 8 4 0 0 0 0 0 0 0 0 0 0 0
0 0 0 0 0 0 0 0 0 0 0 0 0 0 0 0 0 0 0 0 0 0 0 0 0 0 0 0 0 0 0 0 0 0
0 0 0 0 0 0 0 0 0 0 0 0 0 0 0 0 0 0 0 0 0 0 0;
#X connect 1 0 2 0;
#X restore 100 140 pd a4;
#N canvas 1415 437 450 350 a5 0;
#N canvas 0 0 450 300 (subpatch) 0;
#X array array5 127 float 23 black #ff0000;
#A 0 0 0 0 0 0 0 0 0 0 0 0 0 0 0 0 0 0 0 0 0 0 0 0 0 0 0 0 4 8 12 16
20 24 28 33 37 41 45 50 54 58 62 66 71 77 83 92 100 92 83 77 71 66
62 58 54 50 45 41 37 33 28 24 20 16 12 8 4 0 0 0 0 0 0 0 0 0 0 0 0
0 0 0 0 0 0 0 0 0 0 0 0 0 0 0 0 0 0 0 0 0 0 0 0 0 0 0 0 0 0 0 0 0 0
0 0 0 0 0 0 0 0 0 0 0 0 0;
#X coords 0 100 127 0 299 99 1;
#X restore 110 20 graph;
#X obj 10 100 loadbang;
#X msg 10 150 \; array5 0 0 0 0 0 0 0 0 0 0 0 0 0 0 0 0 0 0 0 0 0 0
0 0 0 0 0 0 4 8 12 16 20 24 28 33 37 41 45 50 54 58 62 66 71 77 83
92 100 92 83 77 71 66 62 58 54 50 45 41 37 33 28 24 20 16 12 8 4 0
0 0 0 0 0 0 0 0 0 0 0 0 0 0 0 0 0 0 0 0 0 0 0 0 0 0 0 0 0 0 0 0 0 0
0 0 0 0 0 0 0 0 0 0 0 0 0 0 0 0 0 0 0 0 0 0 0 0;
#X connect 1 0 2 0;
#X restore 100 160 pd a5;
#N canvas 1377 527 450 375 a6 0;
#N canvas 0 0 450 300 (subpatch) 0;
#X array array6 127 float 23 black #ff0000;
#A 0 0 0 0 0 0 0 0 0 0 0 0 0 0 0 0 0 0 0 0 0 0 0 0 0 0 0 0 0 0 0 0
0 0 0 0 0 0 4 8 12 16 20 24 28 33 37 41 45 50 54 58 62 66 71 77 83
92 100 92 83 77 71 66 62 58 54 50 45 41 37 33 28 24 20 16 12 8 4 0
0 0 0 0 0 0 0 0 0 0 0 0 0 0 0 0 0 0 0 0 0 0 0 0 0 0 0 0 0 0 0 0 0 0
0 0 0 0 0 0 0 0 0 0 0 0 0 0;
#X coords 0 100 127 0 299 99 1;
#X restore 110 20 graph;
#X obj 10 100 loadbang;
#X msg 10 150 \; array6 0 0 0 0 0 0 0 0 0 0 0 0 0 0 0 0 0 0 0 0 0 0
0 0 0 0 0 0 0 0 0 0 0 0 0 0 0 0 4 8 12 16 20 24 28 33 37 41 45 50 54
58 62 66 71 77 83 92 100 92 83 77 71 66 62 58 54 50 45 41 37 33 28
24 20 16 12 8 4 0 0 0 0 0 0 0 0 0 0 0 0 0 0 0 0 0 0 0 0 0 0 0 0 0 0
0 0 0 0 0 0 0 0 0 0 0 0 0 0 0 0 0 0 0 0 0 0 0;
#X connect 1 0 2 0;
#X restore 100 180 pd a6;
#N canvas 1377 527 450 375 a7 0;
#N canvas 0 0 450 300 (subpatch) 0;
#X array array7 127 float 23 black #ff0000;
#A 0 0 0 0 0 0 0 0 0 0 0 0 0 0 0 0 0 0 0 0 0 0 0 0 0 0 0 0 0 0 0 0
0 0 0 0 0 0 0 0 0 0 0 0 0 0 0 4 8 12 16 20 24 28 33 37 41 45 50 54
58 62 66 71 77 83 92 100 92 83 77 71 66 62 58 54 50 45 41 37 33 28
24 20 16 12 8 4 0 0 0 0 0 0 0 0 0 0 0 0 0 0 0 0 0 0 0 0 0 0 0 0 0 0
0 0 0 0 0 0 0 0 0 0 0 0 0 0;
#X coords 0 100 127 0 299 99 1;
#X restore 110 20 graph;
#X obj 10 100 loadbang;
#X msg 10 150 \; array7 0 0 0 0 0 0 0 0 0 0 0 0 0 0 0 0 0 0 0 0 0 0
0 0 0 0 0 0 0 0 0 0 0 0 0 0 0 0 0 0 0 0 0 0 0 0 0 4 8 12 16 20 24 28
33 37 41 45 50 54 58 62 66 71 77 83 92 100 92 83 77 71 66 62 58 54
50 45 41 37 33 28 24 20 16 12 8 4 0 0 0 0 0 0 0 0 0 0 0 0 0 0 0 0 0
0 0 0 0 0 0 0 0 0 0 0 0 0 0 0 0 0 0 0 0 0 0 0;
#X connect 1 0 2 0;
#X restore 140 80 pd a7;
#N canvas 1377 536 450 400 a8 0;
#N canvas 0 0 450 300 (subpatch) 0;
#X array array8 127 float 23 black #ff0000;
#A 0 0 0 0 0 0 0 0 0 0 0 0 0 0 0 0 0 0 0 0 0 0 0 0 0 0 0 0 0 0 0 0
0 0 0 0 0 0 0 0 0 0 0 0 0 0 0 0 0 0 0 0 0 0 0 0 0 4 8 12 16 20 24 28
33 37 41 45 50 54 58 62 66 71 77 83 92 100 92 83 77 71 66 62 58 54
50 45 41 37 33 28 24 20 16 12 8 4 0 0 0 0 0 0 0 0 0 0 0 0 0 0 0 0 0
0 0 0 0 0 0 0 0 0 0 0 0 0;
#X coords 0 100 127 0 299 99 1;
#X restore 110 20 graph;
#X obj 10 100 loadbang;
#X msg 10 150 \; array8 0 0 0 0 0 0 0 0 0 0 0 0 0 0 0 0 0 0 0 0 0 0
0 0 0 0 0 0 0 0 0 0 0 0 0 0 0 0 0 0 0 0 0 0 0 0 0 0 0 0 0 0 0 0 0 0
0 4 8 12 16 20 24 28 33 37 41 45 50 54 58 62 66 71 77 83 92 100 92
83 77 71 66 62 58 54 50 45 41 37 33 28 24 20 16 12 8 4 0 0 0 0 0 0
0 0 0 0 0 0 0 0 0 0 0 0 0 0 0 0 0 0 0 0 0 0 0 0;
#X connect 1 0 2 0;
#X restore 140 100 pd a8;
#N canvas 1377 536 450 400 a9 0;
#N canvas 0 0 450 300 (subpatch) 0;
#X array array9 127 float 23 black #ff0000;
#A 0 0 0 0 0 0 0 0 0 0 0 0 0 0 0 0 0 0 0 0 0 0 0 0 0 0 0 0 0 0 0 0
0 0 0 0 0 0 0 0 0 0 0 0 0 0 0 0 0 0 0 0 0 0 0 0 0 0 0 0 0 0 0 0 0 0
4 8 12 16 20 24 28 33 37 41 45 50 54 58 62 66 71 77 83 92 100 92 83
77 71 66 62 58 54 50 45 41 37 33 28 24 20 16 12 8 4 0 0 0 0 0 0 0 0
0 0 0 0 0 0 0 0 0 0 0 0 0;
#X coords 0 100 127 0 299 99 1;
#X restore 110 20 graph;
#X obj 10 100 loadbang;
#X msg 10 150 \; array9 0 0 0 0 0 0 0 0 0 0 0 0 0 0 0 0 0 0 0 0 0 0
0 0 0 0 0 0 0 0 0 0 0 0 0 0 0 0 0 0 0 0 0 0 0 0 0 0 0 0 0 0 0 0 0 0
0 0 0 0 0 0 0 0 0 0 4 8 12 16 20 24 28 33 37 41 45 50 54 58 62 66 71
77 83 92 100 92 83 77 71 66 62 58 54 50 45 41 37 33 28 24 20 16 12
8 4 0 0 0 0 0 0 0 0 0 0 0 0 0 0 0 0 0 0 0 0 0;
#X connect 1 0 2 0;
#X restore 140 120 pd a9;
#X restore 80 200 pd arrays;
#N canvas 170 618 450 375 integrators 0;
#N canvas 34 344 450 350 i1 0;
#X floatatom 100 80 5 0 0 0 - - -, f 5;
#X floatatom 1410 230 5 0 0 0 - - -, f 5;
#X obj 1410 170 tabread array12;
#X obj 1410 200 / 100;
#X floatatom 1290 230 5 0 0 0 - - -, f 5;
#X obj 1290 200 / 100;
#X obj 1290 170 tabread array11;
#X floatatom 1170 230 5 0 0 0 - - -, f 5;
#X obj 1170 200 / 100;
#X floatatom 1050 230 5 0 0 0 - - -, f 5;
#X obj 1050 200 / 100;
#X obj 1170 170 tabread array10;
#X obj 1050 170 tabread array9;
#X floatatom 930 230 5 0 0 0 - - -, f 5;
#X obj 930 200 / 100;
#X floatatom 810 230 5 0 0 0 - - -, f 5;
#X obj 810 200 / 100;
#X floatatom 690 230 5 0 0 0 - - -, f 5;
#X obj 690 200 / 100;
#X floatatom 570 230 5 0 0 0 - - -, f 5;
#X obj 570 200 / 100;
#X obj 930 170 tabread array8;
#X obj 810 170 tabread array7;
#X obj 690 170 tabread array6;
#X obj 570 170 tabread array5;
#X floatatom 460 230 5 0 0 0 - - -, f 5;
#X obj 460 200 / 100;
#X floatatom 340 230 5 0 0 0 - - -, f 5;
#X obj 340 200 / 100;
#X floatatom 220 230 5 0 0 0 - - -, f 5;
#X obj 220 200 / 100;
#X floatatom 100 230 5 0 0 0 - - -, f 5;
#X obj 100 200 / 100;
#X obj 460 170 tabread array4;
#X obj 340 170 tabread array3;
#X obj 220 170 tabread array2;
#X obj 100 170 tabread array1;
#X obj 100 50 r val1;
#X obj 100 260 s vol2-1;
#X obj 220 260 s vol2-2;
#X obj 340 260 s vol2-3;
#X obj 460 260 s vol2-4;
#X obj 570 260 s vol2-5;
#X obj 690 260 s vol2-6;
#X obj 810 260 s vol2-7;
#X obj 930 260 s vol2-8;
#X obj 1050 260 s vol2-9;
#X obj 1170 260 s vol2-10;
#X obj 1290 260 s vol2-11;
#X obj 1410 260 s vol2-12;
#X connect 0 0 2 0;
#X connect 0 0 6 0;
#X connect 0 0 12 0;
#X connect 0 0 11 0;
#X connect 0 0 24 0;
#X connect 0 0 23 0;
#X connect 0 0 22 0;
#X connect 0 0 21 0;
#X connect 0 0 36 0;
#X connect 0 0 35 0;
#X connect 0 0 34 0;
#X connect 0 0 33 0;
#X connect 1 0 49 0;
#X connect 2 0 3 0;
#X connect 3 0 1 0;
#X connect 4 0 48 0;
#X connect 5 0 4 0;
#X connect 6 0 5 0;
#X connect 7 0 47 0;
#X connect 8 0 7 0;
#X connect 9 0 46 0;
#X connect 10 0 9 0;
#X connect 11 0 8 0;
#X connect 12 0 10 0;
#X connect 13 0 45 0;
#X connect 14 0 13 0;
#X connect 15 0 44 0;
#X connect 16 0 15 0;
#X connect 17 0 43 0;
#X connect 18 0 17 0;
#X connect 19 0 42 0;
#X connect 20 0 19 0;
#X connect 21 0 14 0;
#X connect 22 0 16 0;
#X connect 23 0 18 0;
#X connect 24 0 20 0;
#X connect 25 0 41 0;
#X connect 26 0 25 0;
#X connect 27 0 40 0;
#X connect 28 0 27 0;
#X connect 29 0 39 0;
#X connect 30 0 29 0;
#X connect 31 0 38 0;
#X connect 32 0 31 0;
#X connect 33 0 26 0;
#X connect 34 0 28 0;
#X connect 35 0 30 0;
#X connect 36 0 32 0;
#X connect 37 0 0 0;
#X restore 100 100 pd i1;
#N canvas 34 371 450 425 i0 0;
#X floatatom 100 80 5 0 0 0 - - -, f 5;
#X floatatom 1410 230 5 0 0 0 - - -, f 5;
#X obj 1410 170 tabread array12;
#X obj 1410 200 / 100;
#X obj 1410 260 s vol1-12;
#X floatatom 1290 230 5 0 0 0 - - -, f 5;
#X obj 1290 200 / 100;
#X obj 1290 170 tabread array11;
#X obj 1290 260 s vol1-11;
#X floatatom 1170 230 5 0 0 0 - - -, f 5;
#X obj 1170 200 / 100;
#X floatatom 1050 230 5 0 0 0 - - -, f 5;
#X obj 1050 200 / 100;
#X obj 1170 260 s vol1-10;
#X obj 1170 170 tabread array10;
#X obj 1050 170 tabread array9;
#X obj 1050 260 s vol1-9;
#X floatatom 930 230 5 0 0 0 - - -, f 5;
#X obj 930 200 / 100;
#X floatatom 810 230 5 0 0 0 - - -, f 5;
#X obj 810 200 / 100;
#X floatatom 690 230 5 0 0 0 - - -, f 5;
#X obj 690 200 / 100;
#X floatatom 570 230 5 0 0 0 - - -, f 5;
#X obj 570 200 / 100;
#X obj 930 170 tabread array8;
#X obj 810 170 tabread array7;
#X obj 690 170 tabread array6;
#X obj 570 170 tabread array5;
#X obj 570 260 s vol1-5;
#X obj 690 260 s vol1-6;
#X obj 810 260 s vol1-7;
#X obj 930 260 s vol1-8;
#X floatatom 460 230 5 0 0 0 - - -, f 5;
#X obj 460 200 / 100;
#X floatatom 340 230 5 0 0 0 - - -, f 5;
#X obj 340 200 / 100;
#X floatatom 220 230 5 0 0 0 - - -, f 5;
#X obj 220 200 / 100;
#X floatatom 100 230 5 0 0 0 - - -, f 5;
#X obj 100 200 / 100;
#X obj 100 260 s vol1-1;
#X obj 220 260 s vol1-2;
#X obj 340 260 s vol1-3;
#X obj 460 260 s vol1-4;
#X obj 460 170 tabread array4;
#X obj 340 170 tabread array3;
#X obj 220 170 tabread array2;
#X obj 100 170 tabread array1;
#X obj 100 50 r val0;
#X connect 0 0 2 0;
#X connect 0 0 7 0;
#X connect 0 0 15 0;
#X connect 0 0 14 0;
#X connect 0 0 28 0;
#X connect 0 0 27 0;
#X connect 0 0 26 0;
#X connect 0 0 25 0;
#X connect 0 0 48 0;
#X connect 0 0 47 0;
#X connect 0 0 46 0;
#X connect 0 0 45 0;
#X connect 1 0 4 0;
#X connect 2 0 3 0;
#X connect 3 0 1 0;
#X connect 5 0 8 0;
#X connect 6 0 5 0;
#X connect 7 0 6 0;
#X connect 9 0 13 0;
#X connect 10 0 9 0;
#X connect 11 0 16 0;
#X connect 12 0 11 0;
#X connect 14 0 10 0;
#X connect 15 0 12 0;
#X connect 17 0 32 0;
#X connect 18 0 17 0;
#X connect 19 0 31 0;
#X connect 20 0 19 0;
#X connect 21 0 30 0;
#X connect 22 0 21 0;
#X connect 23 0 29 0;
#X connect 24 0 23 0;
#X connect 25 0 18 0;
#X connect 26 0 20 0;
#X connect 27 0 22 0;
#X connect 28 0 24 0;
#X connect 33 0 44 0;
#X connect 34 0 33 0;
#X connect 35 0 43 0;
#X connect 36 0 35 0;
#X connect 37 0 42 0;
#X connect 38 0 37 0;
#X connect 39 0 41 0;
#X connect 40 0 39 0;
#X connect 45 0 34 0;
#X connect 46 0 36 0;
#X connect 47 0 38 0;
#X connect 48 0 40 0;
#X connect 49 0 0 0;
#X restore 100 80 pd i0;
#N canvas 34 335 450 325 i2 0;
#X floatatom 100 80 5 0 0 0 - - -, f 5;
#X floatatom 1410 230 5 0 0 0 - - -, f 5;
#X obj 1410 170 tabread array12;
#X obj 1410 200 / 100;
#X floatatom 1290 230 5 0 0 0 - - -, f 5;
#X obj 1290 200 / 100;
#X obj 1290 170 tabread array11;
#X floatatom 1170 230 5 0 0 0 - - -, f 5;
#X obj 1170 200 / 100;
#X floatatom 1050 230 5 0 0 0 - - -, f 5;
#X obj 1050 200 / 100;
#X obj 1170 170 tabread array10;
#X obj 1050 170 tabread array9;
#X floatatom 930 230 5 0 0 0 - - -, f 5;
#X obj 930 200 / 100;
#X floatatom 810 230 5 0 0 0 - - -, f 5;
#X obj 810 200 / 100;
#X floatatom 690 230 5 0 0 0 - - -, f 5;
#X obj 690 200 / 100;
#X floatatom 570 230 5 0 0 0 - - -, f 5;
#X obj 570 200 / 100;
#X obj 930 170 tabread array8;
#X obj 810 170 tabread array7;
#X obj 690 170 tabread array6;
#X obj 570 170 tabread array5;
#X floatatom 460 230 5 0 0 0 - - -, f 5;
#X obj 460 200 / 100;
#X floatatom 340 230 5 0 0 0 - - -, f 5;
#X obj 340 200 / 100;
#X floatatom 220 230 5 0 0 0 - - -, f 5;
#X obj 220 200 / 100;
#X floatatom 100 230 5 0 0 0 - - -, f 5;
#X obj 100 200 / 100;
#X obj 460 170 tabread array4;
#X obj 340 170 tabread array3;
#X obj 220 170 tabread array2;
#X obj 100 170 tabread array1;
#X obj 100 50 r val2;
#X obj 100 260 s vol3-1;
#X obj 220 260 s vol3-2;
#X obj 340 260 s vol3-3;
#X obj 460 260 s vol3-4;
#X obj 570 260 s vol3-5;
#X obj 690 260 s vol3-6;
#X obj 810 260 s vol3-7;
#X obj 930 260 s vol3-8;
#X obj 1050 260 s vol3-9;
#X obj 1170 260 s vol3-10;
#X obj 1290 260 s vol3-11;
#X obj 1410 260 s vol3-12;
#X connect 0 0 2 0;
#X connect 0 0 6 0;
#X connect 0 0 12 0;
#X connect 0 0 11 0;
#X connect 0 0 24 0;
#X connect 0 0 23 0;
#X connect 0 0 22 0;
#X connect 0 0 21 0;
#X connect 0 0 36 0;
#X connect 0 0 35 0;
#X connect 0 0 34 0;
#X connect 0 0 33 0;
#X connect 1 0 49 0;
#X connect 2 0 3 0;
#X connect 3 0 1 0;
#X connect 4 0 48 0;
#X connect 5 0 4 0;
#X connect 6 0 5 0;
#X connect 7 0 47 0;
#X connect 8 0 7 0;
#X connect 9 0 46 0;
#X connect 10 0 9 0;
#X connect 11 0 8 0;
#X connect 12 0 10 0;
#X connect 13 0 45 0;
#X connect 14 0 13 0;
#X connect 15 0 44 0;
#X connect 16 0 15 0;
#X connect 17 0 43 0;
#X connect 18 0 17 0;
#X connect 19 0 42 0;
#X connect 20 0 19 0;
#X connect 21 0 14 0;
#X connect 22 0 16 0;
#X connect 23 0 18 0;
#X connect 24 0 20 0;
#X connect 25 0 41 0;
#X connect 26 0 25 0;
#X connect 27 0 40 0;
#X connect 28 0 27 0;
#X connect 29 0 39 0;
#X connect 30 0 29 0;
#X connect 31 0 38 0;
#X connect 32 0 31 0;
#X connect 33 0 26 0;
#X connect 34 0 28 0;
#X connect 35 0 30 0;
#X connect 36 0 32 0;
#X connect 37 0 0 0;
#X restore 100 120 pd i2;
#N canvas 34 344 450 350 i3 0;
#X floatatom 100 80 5 0 0 0 - - -, f 5;
#X floatatom 1410 230 5 0 0 0 - - -, f 5;
#X obj 1410 170 tabread array12;
#X obj 1410 200 / 100;
#X floatatom 1290 230 5 0 0 0 - - -, f 5;
#X obj 1290 200 / 100;
#X obj 1290 170 tabread array11;
#X floatatom 1170 230 5 0 0 0 - - -, f 5;
#X obj 1170 200 / 100;
#X floatatom 1050 230 5 0 0 0 - - -, f 5;
#X obj 1050 200 / 100;
#X obj 1170 170 tabread array10;
#X obj 1050 170 tabread array9;
#X floatatom 930 230 5 0 0 0 - - -, f 5;
#X obj 930 200 / 100;
#X floatatom 810 230 5 0 0 0 - - -, f 5;
#X obj 810 200 / 100;
#X floatatom 690 230 5 0 0 0 - - -, f 5;
#X obj 690 200 / 100;
#X floatatom 570 230 5 0 0 0 - - -, f 5;
#X obj 570 200 / 100;
#X obj 930 170 tabread array8;
#X obj 810 170 tabread array7;
#X obj 690 170 tabread array6;
#X obj 570 170 tabread array5;
#X floatatom 460 230 5 0 0 0 - - -, f 5;
#X obj 460 200 / 100;
#X floatatom 340 230 5 0 0 0 - - -, f 5;
#X obj 340 200 / 100;
#X floatatom 220 230 5 0 0 0 - - -, f 5;
#X obj 220 200 / 100;
#X floatatom 100 230 5 0 0 0 - - -, f 5;
#X obj 100 200 / 100;
#X obj 460 170 tabread array4;
#X obj 340 170 tabread array3;
#X obj 220 170 tabread array2;
#X obj 100 170 tabread array1;
#X obj 100 50 r val3;
#X obj 100 260 s vol4-1;
#X obj 220 260 s vol4-2;
#X obj 340 260 s vol4-3;
#X obj 460 260 s vol4-4;
#X obj 570 260 s vol4-5;
#X obj 690 260 s vol4-6;
#X obj 810 260 s vol4-7;
#X obj 930 260 s vol4-8;
#X obj 1050 260 s vol4-9;
#X obj 1170 260 s vol4-10;
#X obj 1290 260 s vol4-11;
#X obj 1410 260 s vol4-12;
#X connect 0 0 2 0;
#X connect 0 0 6 0;
#X connect 0 0 12 0;
#X connect 0 0 11 0;
#X connect 0 0 24 0;
#X connect 0 0 23 0;
#X connect 0 0 22 0;
#X connect 0 0 21 0;
#X connect 0 0 36 0;
#X connect 0 0 35 0;
#X connect 0 0 34 0;
#X connect 0 0 33 0;
#X connect 1 0 49 0;
#X connect 2 0 3 0;
#X connect 3 0 1 0;
#X connect 4 0 48 0;
#X connect 5 0 4 0;
#X connect 6 0 5 0;
#X connect 7 0 47 0;
#X connect 8 0 7 0;
#X connect 9 0 46 0;
#X connect 10 0 9 0;
#X connect 11 0 8 0;
#X connect 12 0 10 0;
#X connect 13 0 45 0;
#X connect 14 0 13 0;
#X connect 15 0 44 0;
#X connect 16 0 15 0;
#X connect 17 0 43 0;
#X connect 18 0 17 0;
#X connect 19 0 42 0;
#X connect 20 0 19 0;
#X connect 21 0 14 0;
#X connect 22 0 16 0;
#X connect 23 0 18 0;
#X connect 24 0 20 0;
#X connect 25 0 41 0;
#X connect 26 0 25 0;
#X connect 27 0 40 0;
#X connect 28 0 27 0;
#X connect 29 0 39 0;
#X connect 30 0 29 0;
#X connect 31 0 38 0;
#X connect 32 0 31 0;
#X connect 33 0 26 0;
#X connect 34 0 28 0;
#X connect 35 0 30 0;
#X connect 36 0 32 0;
#X connect 37 0 0 0;
#X restore 100 140 pd i3;
#N canvas 34 353 450 375 i4 0;
#X floatatom 100 80 5 0 0 0 - - -, f 5;
#X floatatom 1410 230 5 0 0 0 - - -, f 5;
#X obj 1410 170 tabread array12;
#X obj 1410 200 / 100;
#X floatatom 1290 230 5 0 0 0 - - -, f 5;
#X obj 1290 200 / 100;
#X obj 1290 170 tabread array11;
#X floatatom 1170 230 5 0 0 0 - - -, f 5;
#X obj 1170 200 / 100;
#X floatatom 1050 230 5 0 0 0 - - -, f 5;
#X obj 1050 200 / 100;
#X obj 1170 170 tabread array10;
#X obj 1050 170 tabread array9;
#X floatatom 930 230 5 0 0 0 - - -, f 5;
#X obj 930 200 / 100;
#X floatatom 810 230 5 0 0 0 - - -, f 5;
#X obj 810 200 / 100;
#X floatatom 690 230 5 0 0 0 - - -, f 5;
#X obj 690 200 / 100;
#X floatatom 570 230 5 0 0 0 - - -, f 5;
#X obj 570 200 / 100;
#X obj 930 170 tabread array8;
#X obj 810 170 tabread array7;
#X obj 690 170 tabread array6;
#X obj 570 170 tabread array5;
#X floatatom 460 230 5 0 0 0 - - -, f 5;
#X obj 460 200 / 100;
#X floatatom 340 230 5 0 0 0 - - -, f 5;
#X obj 340 200 / 100;
#X floatatom 220 230 5 0 0 0 - - -, f 5;
#X obj 220 200 / 100;
#X floatatom 100 230 5 0 0 0 - - -, f 5;
#X obj 100 200 / 100;
#X obj 460 170 tabread array4;
#X obj 340 170 tabread array3;
#X obj 220 170 tabread array2;
#X obj 100 170 tabread array1;
#X obj 100 50 r val4;
#X obj 100 260 s vol5-1;
#X obj 220 260 s vol5-2;
#X obj 340 260 s vol5-3;
#X obj 460 260 s vol5-4;
#X obj 570 260 s vol5-5;
#X obj 690 260 s vol5-6;
#X obj 810 260 s vol5-7;
#X obj 930 260 s vol5-8;
#X obj 1050 260 s vol5-9;
#X obj 1170 260 s vol5-10;
#X obj 1290 260 s vol5-11;
#X obj 1410 260 s vol5-12;
#X connect 0 0 2 0;
#X connect 0 0 6 0;
#X connect 0 0 12 0;
#X connect 0 0 11 0;
#X connect 0 0 24 0;
#X connect 0 0 23 0;
#X connect 0 0 22 0;
#X connect 0 0 21 0;
#X connect 0 0 36 0;
#X connect 0 0 35 0;
#X connect 0 0 34 0;
#X connect 0 0 33 0;
#X connect 1 0 49 0;
#X connect 2 0 3 0;
#X connect 3 0 1 0;
#X connect 4 0 48 0;
#X connect 5 0 4 0;
#X connect 6 0 5 0;
#X connect 7 0 47 0;
#X connect 8 0 7 0;
#X connect 9 0 46 0;
#X connect 10 0 9 0;
#X connect 11 0 8 0;
#X connect 12 0 10 0;
#X connect 13 0 45 0;
#X connect 14 0 13 0;
#X connect 15 0 44 0;
#X connect 16 0 15 0;
#X connect 17 0 43 0;
#X connect 18 0 17 0;
#X connect 19 0 42 0;
#X connect 20 0 19 0;
#X connect 21 0 14 0;
#X connect 22 0 16 0;
#X connect 23 0 18 0;
#X connect 24 0 20 0;
#X connect 25 0 41 0;
#X connect 26 0 25 0;
#X connect 27 0 40 0;
#X connect 28 0 27 0;
#X connect 29 0 39 0;
#X connect 30 0 29 0;
#X connect 31 0 38 0;
#X connect 32 0 31 0;
#X connect 33 0 26 0;
#X connect 34 0 28 0;
#X connect 35 0 30 0;
#X connect 36 0 32 0;
#X connect 37 0 0 0;
#X restore 100 160 pd i4;
#N canvas 61 186 1619 400 i5 0;
#X floatatom 100 80 5 0 0 0 - - -, f 5;
#X floatatom 1410 230 5 0 0 0 - - -, f 5;
#X obj 1410 170 tabread array12;
#X obj 1410 200 / 100;
#X floatatom 1290 230 5 0 0 0 - - -, f 5;
#X obj 1290 200 / 100;
#X obj 1290 170 tabread array11;
#X floatatom 1170 230 5 0 0 0 - - -, f 5;
#X obj 1170 200 / 100;
#X floatatom 1050 230 5 0 0 0 - - -, f 5;
#X obj 1050 200 / 100;
#X obj 1170 170 tabread array10;
#X obj 1050 170 tabread array9;
#X floatatom 930 230 5 0 0 0 - - -, f 5;
#X obj 930 200 / 100;
#X floatatom 810 230 5 0 0 0 - - -, f 5;
#X obj 810 200 / 100;
#X floatatom 690 230 5 0 0 0 - - -, f 5;
#X obj 690 200 / 100;
#X floatatom 570 230 5 0 0 0 - - -, f 5;
#X obj 570 200 / 100;
#X obj 930 170 tabread array8;
#X obj 810 170 tabread array7;
#X obj 690 170 tabread array6;
#X obj 570 170 tabread array5;
#X floatatom 460 230 5 0 0 0 - - -, f 5;
#X obj 460 200 / 100;
#X floatatom 340 230 5 0 0 0 - - -, f 5;
#X obj 340 200 / 100;
#X floatatom 220 230 5 0 0 0 - - -, f 5;
#X obj 220 200 / 100;
#X floatatom 100 230 5 0 0 0 - - -, f 5;
#X obj 100 200 / 100;
#X obj 460 170 tabread array4;
#X obj 340 170 tabread array3;
#X obj 220 170 tabread array2;
#X obj 100 170 tabread array1;
#X obj 100 50 r val5;
#X obj 100 260 s vol6-1;
#X obj 220 260 s vol6-2;
#X obj 340 260 s vol6-3;
#X obj 460 260 s vol6-4;
#X obj 570 260 s vol6-5;
#X obj 690 260 s vol6-6;
#X obj 810 260 s vol6-7;
#X obj 930 260 s vol6-8;
#X obj 1050 260 s vol6-9;
#X obj 1170 260 s vol6-10;
#X obj 1290 260 s vol6-11;
#X obj 1410 260 s vol6-12;
#X connect 0 0 2 0;
#X connect 0 0 6 0;
#X connect 0 0 12 0;
#X connect 0 0 11 0;
#X connect 0 0 24 0;
#X connect 0 0 23 0;
#X connect 0 0 22 0;
#X connect 0 0 21 0;
#X connect 0 0 36 0;
#X connect 0 0 35 0;
#X connect 0 0 34 0;
#X connect 0 0 33 0;
#X connect 1 0 49 0;
#X connect 2 0 3 0;
#X connect 3 0 1 0;
#X connect 4 0 48 0;
#X connect 5 0 4 0;
#X connect 6 0 5 0;
#X connect 7 0 47 0;
#X connect 8 0 7 0;
#X connect 9 0 46 0;
#X connect 10 0 9 0;
#X connect 11 0 8 0;
#X connect 12 0 10 0;
#X connect 13 0 45 0;
#X connect 14 0 13 0;
#X connect 15 0 44 0;
#X connect 16 0 15 0;
#X connect 17 0 43 0;
#X connect 18 0 17 0;
#X connect 19 0 42 0;
#X connect 20 0 19 0;
#X connect 21 0 14 0;
#X connect 22 0 16 0;
#X connect 23 0 18 0;
#X connect 24 0 20 0;
#X connect 25 0 41 0;
#X connect 26 0 25 0;
#X connect 27 0 40 0;
#X connect 28 0 27 0;
#X connect 29 0 39 0;
#X connect 30 0 29 0;
#X connect 31 0 38 0;
#X connect 32 0 31 0;
#X connect 33 0 26 0;
#X connect 34 0 28 0;
#X connect 35 0 30 0;
#X connect 36 0 32 0;
#X connect 37 0 0 0;
#X restore 100 180 pd i5;
#N canvas 61 186 1619 400 i6 0;
#X floatatom 100 80 5 0 0 0 - - -, f 5;
#X floatatom 1410 230 5 0 0 0 - - -, f 5;
#X obj 1410 170 tabread array12;
#X obj 1410 200 / 100;
#X floatatom 1290 230 5 0 0 0 - - -, f 5;
#X obj 1290 200 / 100;
#X obj 1290 170 tabread array11;
#X floatatom 1170 230 5 0 0 0 - - -, f 5;
#X obj 1170 200 / 100;
#X floatatom 1050 230 5 0 0 0 - - -, f 5;
#X obj 1050 200 / 100;
#X obj 1170 170 tabread array10;
#X obj 1050 170 tabread array9;
#X floatatom 930 230 5 0 0 0 - - -, f 5;
#X obj 930 200 / 100;
#X floatatom 810 230 5 0 0 0 - - -, f 5;
#X obj 810 200 / 100;
#X floatatom 690 230 5 0 0 0 - - -, f 5;
#X obj 690 200 / 100;
#X floatatom 570 230 5 0 0 0 - - -, f 5;
#X obj 570 200 / 100;
#X obj 930 170 tabread array8;
#X obj 810 170 tabread array7;
#X obj 690 170 tabread array6;
#X obj 570 170 tabread array5;
#X floatatom 460 230 5 0 0 0 - - -, f 5;
#X obj 460 200 / 100;
#X floatatom 340 230 5 0 0 0 - - -, f 5;
#X obj 340 200 / 100;
#X floatatom 220 230 5 0 0 0 - - -, f 5;
#X obj 220 200 / 100;
#X floatatom 100 230 5 0 0 0 - - -, f 5;
#X obj 100 200 / 100;
#X obj 460 170 tabread array4;
#X obj 340 170 tabread array3;
#X obj 220 170 tabread array2;
#X obj 100 170 tabread array1;
#X obj 100 50 r val6;
#X obj 100 260 s vol7-1;
#X obj 220 260 s vol7-2;
#X obj 340 260 s vol7-3;
#X obj 460 260 s vol7-4;
#X obj 570 260 s vol7-5;
#X obj 690 260 s vol7-6;
#X obj 810 260 s vol7-7;
#X obj 930 260 s vol7-8;
#X obj 1050 260 s vol7-9;
#X obj 1170 260 s vol7-10;
#X obj 1290 260 s vol7-11;
#X obj 1410 260 s vol7-12;
#X connect 0 0 2 0;
#X connect 0 0 6 0;
#X connect 0 0 12 0;
#X connect 0 0 11 0;
#X connect 0 0 24 0;
#X connect 0 0 23 0;
#X connect 0 0 22 0;
#X connect 0 0 21 0;
#X connect 0 0 36 0;
#X connect 0 0 35 0;
#X connect 0 0 34 0;
#X connect 0 0 33 0;
#X connect 1 0 49 0;
#X connect 2 0 3 0;
#X connect 3 0 1 0;
#X connect 4 0 48 0;
#X connect 5 0 4 0;
#X connect 6 0 5 0;
#X connect 7 0 47 0;
#X connect 8 0 7 0;
#X connect 9 0 46 0;
#X connect 10 0 9 0;
#X connect 11 0 8 0;
#X connect 12 0 10 0;
#X connect 13 0 45 0;
#X connect 14 0 13 0;
#X connect 15 0 44 0;
#X connect 16 0 15 0;
#X connect 17 0 43 0;
#X connect 18 0 17 0;
#X connect 19 0 42 0;
#X connect 20 0 19 0;
#X connect 21 0 14 0;
#X connect 22 0 16 0;
#X connect 23 0 18 0;
#X connect 24 0 20 0;
#X connect 25 0 41 0;
#X connect 26 0 25 0;
#X connect 27 0 40 0;
#X connect 28 0 27 0;
#X connect 29 0 39 0;
#X connect 30 0 29 0;
#X connect 31 0 38 0;
#X connect 32 0 31 0;
#X connect 33 0 26 0;
#X connect 34 0 28 0;
#X connect 35 0 30 0;
#X connect 36 0 32 0;
#X connect 37 0 0 0;
#X restore 100 200 pd i6;
#N canvas 61 186 1619 400 i7 0;
#X floatatom 100 80 5 0 0 0 - - -, f 5;
#X floatatom 1410 230 5 0 0 0 - - -, f 5;
#X obj 1410 170 tabread array12;
#X obj 1410 200 / 100;
#X floatatom 1290 230 5 0 0 0 - - -, f 5;
#X obj 1290 200 / 100;
#X obj 1290 170 tabread array11;
#X floatatom 1170 230 5 0 0 0 - - -, f 5;
#X obj 1170 200 / 100;
#X floatatom 1050 230 5 0 0 0 - - -, f 5;
#X obj 1050 200 / 100;
#X obj 1170 170 tabread array10;
#X obj 1050 170 tabread array9;
#X floatatom 930 230 5 0 0 0 - - -, f 5;
#X obj 930 200 / 100;
#X floatatom 810 230 5 0 0 0 - - -, f 5;
#X obj 810 200 / 100;
#X floatatom 690 230 5 0 0 0 - - -, f 5;
#X obj 690 200 / 100;
#X floatatom 570 230 5 0 0 0 - - -, f 5;
#X obj 570 200 / 100;
#X obj 930 170 tabread array8;
#X obj 810 170 tabread array7;
#X obj 690 170 tabread array6;
#X obj 570 170 tabread array5;
#X floatatom 460 230 5 0 0 0 - - -, f 5;
#X obj 460 200 / 100;
#X floatatom 340 230 5 0 0 0 - - -, f 5;
#X obj 340 200 / 100;
#X floatatom 220 230 5 0 0 0 - - -, f 5;
#X obj 220 200 / 100;
#X floatatom 100 230 5 0 0 0 - - -, f 5;
#X obj 100 200 / 100;
#X obj 460 170 tabread array4;
#X obj 340 170 tabread array3;
#X obj 220 170 tabread array2;
#X obj 100 170 tabread array1;
#X obj 100 50 r val7;
#X obj 100 260 s vol8-1;
#X obj 220 260 s vol8-2;
#X obj 340 260 s vol8-3;
#X obj 460 260 s vol8-4;
#X obj 570 260 s vol8-5;
#X obj 690 260 s vol8-6;
#X obj 810 260 s vol8-7;
#X obj 930 260 s vol8-8;
#X obj 1050 260 s vol8-9;
#X obj 1170 260 s vol8-10;
#X obj 1290 260 s vol8-11;
#X obj 1410 260 s vol8-12;
#X connect 0 0 2 0;
#X connect 0 0 6 0;
#X connect 0 0 12 0;
#X connect 0 0 11 0;
#X connect 0 0 24 0;
#X connect 0 0 23 0;
#X connect 0 0 22 0;
#X connect 0 0 21 0;
#X connect 0 0 36 0;
#X connect 0 0 35 0;
#X connect 0 0 34 0;
#X connect 0 0 33 0;
#X connect 1 0 49 0;
#X connect 2 0 3 0;
#X connect 3 0 1 0;
#X connect 4 0 48 0;
#X connect 5 0 4 0;
#X connect 6 0 5 0;
#X connect 7 0 47 0;
#X connect 8 0 7 0;
#X connect 9 0 46 0;
#X connect 10 0 9 0;
#X connect 11 0 8 0;
#X connect 12 0 10 0;
#X connect 13 0 45 0;
#X connect 14 0 13 0;
#X connect 15 0 44 0;
#X connect 16 0 15 0;
#X connect 17 0 43 0;
#X connect 18 0 17 0;
#X connect 19 0 42 0;
#X connect 20 0 19 0;
#X connect 21 0 14 0;
#X connect 22 0 16 0;
#X connect 23 0 18 0;
#X connect 24 0 20 0;
#X connect 25 0 41 0;
#X connect 26 0 25 0;
#X connect 27 0 40 0;
#X connect 28 0 27 0;
#X connect 29 0 39 0;
#X connect 30 0 29 0;
#X connect 31 0 38 0;
#X connect 32 0 31 0;
#X connect 33 0 26 0;
#X connect 34 0 28 0;
#X connect 35 0 30 0;
#X connect 36 0 32 0;
#X connect 37 0 0 0;
#X restore 100 220 pd i7;
#N canvas 61 186 1619 400 i8 0;
#X floatatom 100 80 5 0 0 0 - - -, f 5;
#X floatatom 1410 230 5 0 0 0 - - -, f 5;
#X obj 1410 170 tabread array12;
#X obj 1410 200 / 100;
#X floatatom 1290 230 5 0 0 0 - - -, f 5;
#X obj 1290 200 / 100;
#X obj 1290 170 tabread array11;
#X floatatom 1170 230 5 0 0 0 - - -, f 5;
#X obj 1170 200 / 100;
#X floatatom 1050 230 5 0 0 0 - - -, f 5;
#X obj 1050 200 / 100;
#X obj 1170 170 tabread array10;
#X obj 1050 170 tabread array9;
#X floatatom 930 230 5 0 0 0 - - -, f 5;
#X obj 930 200 / 100;
#X floatatom 810 230 5 0 0 0 - - -, f 5;
#X obj 810 200 / 100;
#X floatatom 690 230 5 0 0 0 - - -, f 5;
#X obj 690 200 / 100;
#X floatatom 570 230 5 0 0 0 - - -, f 5;
#X obj 570 200 / 100;
#X obj 930 170 tabread array8;
#X obj 810 170 tabread array7;
#X obj 690 170 tabread array6;
#X obj 570 170 tabread array5;
#X floatatom 460 230 5 0 0 0 - - -, f 5;
#X obj 460 200 / 100;
#X floatatom 340 230 5 0 0 0 - - -, f 5;
#X obj 340 200 / 100;
#X floatatom 220 230 5 0 0 0 - - -, f 5;
#X obj 220 200 / 100;
#X floatatom 100 230 5 0 0 0 - - -, f 5;
#X obj 100 200 / 100;
#X obj 460 170 tabread array4;
#X obj 340 170 tabread array3;
#X obj 220 170 tabread array2;
#X obj 100 170 tabread array1;
#X obj 100 50 r val8;
#X obj 100 260 s vol9-1;
#X obj 220 260 s vol9-2;
#X obj 340 260 s vol9-3;
#X obj 460 260 s vol9-4;
#X obj 570 260 s vol9-5;
#X obj 690 260 s vol9-6;
#X obj 810 260 s vol9-7;
#X obj 930 260 s vol9-8;
#X obj 1050 260 s vol9-9;
#X obj 1170 260 s vol9-10;
#X obj 1290 260 s vol9-11;
#X obj 1410 260 s vol9-12;
#X connect 0 0 2 0;
#X connect 0 0 6 0;
#X connect 0 0 12 0;
#X connect 0 0 11 0;
#X connect 0 0 24 0;
#X connect 0 0 23 0;
#X connect 0 0 22 0;
#X connect 0 0 21 0;
#X connect 0 0 36 0;
#X connect 0 0 35 0;
#X connect 0 0 34 0;
#X connect 0 0 33 0;
#X connect 1 0 49 0;
#X connect 2 0 3 0;
#X connect 3 0 1 0;
#X connect 4 0 48 0;
#X connect 5 0 4 0;
#X connect 6 0 5 0;
#X connect 7 0 47 0;
#X connect 8 0 7 0;
#X connect 9 0 46 0;
#X connect 10 0 9 0;
#X connect 11 0 8 0;
#X connect 12 0 10 0;
#X connect 13 0 45 0;
#X connect 14 0 13 0;
#X connect 15 0 44 0;
#X connect 16 0 15 0;
#X connect 17 0 43 0;
#X connect 18 0 17 0;
#X connect 19 0 42 0;
#X connect 20 0 19 0;
#X connect 21 0 14 0;
#X connect 22 0 16 0;
#X connect 23 0 18 0;
#X connect 24 0 20 0;
#X connect 25 0 41 0;
#X connect 26 0 25 0;
#X connect 27 0 40 0;
#X connect 28 0 27 0;
#X connect 29 0 39 0;
#X connect 30 0 29 0;
#X connect 31 0 38 0;
#X connect 32 0 31 0;
#X connect 33 0 26 0;
#X connect 34 0 28 0;
#X connect 35 0 30 0;
#X connect 36 0 32 0;
#X connect 37 0 0 0;
#X restore 100 240 pd i8;
#N canvas 61 186 1619 400 i9 0;
#X floatatom 100 80 5 0 0 0 - - -, f 5;
#X floatatom 1410 230 5 0 0 0 - - -, f 5;
#X obj 1410 170 tabread array12;
#X obj 1410 200 / 100;
#X floatatom 1290 230 5 0 0 0 - - -, f 5;
#X obj 1290 200 / 100;
#X obj 1290 170 tabread array11;
#X floatatom 1170 230 5 0 0 0 - - -, f 5;
#X obj 1170 200 / 100;
#X floatatom 1050 230 5 0 0 0 - - -, f 5;
#X obj 1050 200 / 100;
#X obj 1170 170 tabread array10;
#X obj 1050 170 tabread array9;
#X floatatom 930 230 5 0 0 0 - - -, f 5;
#X obj 930 200 / 100;
#X floatatom 810 230 5 0 0 0 - - -, f 5;
#X obj 810 200 / 100;
#X floatatom 690 230 5 0 0 0 - - -, f 5;
#X obj 690 200 / 100;
#X floatatom 570 230 5 0 0 0 - - -, f 5;
#X obj 570 200 / 100;
#X obj 930 170 tabread array8;
#X obj 810 170 tabread array7;
#X obj 690 170 tabread array6;
#X obj 570 170 tabread array5;
#X floatatom 460 230 5 0 0 0 - - -, f 5;
#X obj 460 200 / 100;
#X floatatom 340 230 5 0 0 0 - - -, f 5;
#X obj 340 200 / 100;
#X floatatom 220 230 5 0 0 0 - - -, f 5;
#X obj 220 200 / 100;
#X floatatom 100 230 5 0 0 0 - - -, f 5;
#X obj 100 200 / 100;
#X obj 460 170 tabread array4;
#X obj 340 170 tabread array3;
#X obj 220 170 tabread array2;
#X obj 100 170 tabread array1;
#X obj 100 260 s vol9-1;
#X obj 220 260 s vol9-2;
#X obj 340 260 s vol9-3;
#X obj 460 260 s vol9-4;
#X obj 570 260 s vol9-5;
#X obj 690 260 s vol9-6;
#X obj 810 260 s vol9-7;
#X obj 930 260 s vol9-8;
#X obj 1050 260 s vol9-9;
#X obj 1170 260 s vol9-10;
#X obj 1290 260 s vol9-11;
#X obj 1410 260 s vol9-12;
#X obj 100 50 r val9;
#X connect 0 0 2 0;
#X connect 0 0 6 0;
#X connect 0 0 12 0;
#X connect 0 0 11 0;
#X connect 0 0 24 0;
#X connect 0 0 23 0;
#X connect 0 0 22 0;
#X connect 0 0 21 0;
#X connect 0 0 36 0;
#X connect 0 0 35 0;
#X connect 0 0 34 0;
#X connect 0 0 33 0;
#X connect 1 0 48 0;
#X connect 2 0 3 0;
#X connect 3 0 1 0;
#X connect 4 0 47 0;
#X connect 5 0 4 0;
#X connect 6 0 5 0;
#X connect 7 0 46 0;
#X connect 8 0 7 0;
#X connect 9 0 45 0;
#X connect 10 0 9 0;
#X connect 11 0 8 0;
#X connect 12 0 10 0;
#X connect 13 0 44 0;
#X connect 14 0 13 0;
#X connect 15 0 43 0;
#X connect 16 0 15 0;
#X connect 17 0 42 0;
#X connect 18 0 17 0;
#X connect 19 0 41 0;
#X connect 20 0 19 0;
#X connect 21 0 14 0;
#X connect 22 0 16 0;
#X connect 23 0 18 0;
#X connect 24 0 20 0;
#X connect 25 0 40 0;
#X connect 26 0 25 0;
#X connect 27 0 39 0;
#X connect 28 0 27 0;
#X connect 29 0 38 0;
#X connect 30 0 29 0;
#X connect 31 0 37 0;
#X connect 32 0 31 0;
#X connect 33 0 26 0;
#X connect 34 0 28 0;
#X connect 35 0 30 0;
#X connect 36 0 32 0;
#X connect 49 0 0 0;
#X restore 100 260 pd i9;
#X restore 80 60 pd integrators;
#N canvas 56 119 802 933 audioIn 0;
#X obj 340 110 s~ td3;
#X obj 260 110 s~ skulpt;
#X obj 200 110 s~ uno;
#X obj 150 110 s~ mf;
#N canvas 0 0 450 300 (subpatch) 0;
#X array unoIn 100 float 2 black black;
#X coords 0 0.5 100 -0.5 200 140 1;
#X restore 100 630 graph;
#X obj 330 260 tabwrite~ unoIn;
#X obj 450 260 tabwrite~ skulptIn;
#X obj 220 260 tabwrite~ mfIn;
#N canvas 0 0 450 300 (subpatch) 0;
#X array mfIn 100 float 2 black black;
#X coords 0 0.5 100 -0.5 200 140 1;
#X restore 100 480 graph;
#N canvas 0 0 450 300 (subpatch) 0;
#X array td3In 100 float 2 black black;
#X coords 0 0.5 100 -0.5 200 140 1;
#X restore 310 480 graph;
#X obj 100 290 tabwrite~ td3In;
#X obj 100 210 bng 30 250 50 0 empty empty empty 17 7 0 10 #ffffff
#000000 #000000;
#X obj 100 180 metro 250;
#X obj 100 80 adc~ 1 2 3 4 5 6 7 8;
#X obj 100 110 s~ vox;
#X obj 100 260 tabwrite~ voxIn;
#N canvas 0 0 450 300 (subpatch) 0;
#X array voxIn 100 float 3 black black;
#A 0 -7.04527e-05 2.13385e-05 6.31809e-05 -1.41859e-05 -7.58171e-05
-8.47578e-05 0.000136137 6.47307e-05 -9.05991e-05 5.6982e-05 5.14984e-05
2.92063e-05 -6.35386e-05 2.86102e-05 5.94854e-05 -2.89679e-05 -7.72476e-05
-3.3021e-05 0.00014329 4.49419e-05 -8.39233e-05 4.31538e-05 7.08103e-05
-3.27826e-05 -5.51939e-05 3.31402e-05 5.49555e-05 -4.76837e-07 -4.41074e-06
-3.27826e-05 0.000139594 3.50475e-05 -8.72612e-05 7.689e-05 4.51803e-05
-4.57764e-05 -2.563e-05 0.0001055 7.65324e-05 1.90735e-06 1.68085e-05
2.08616e-05 0.000125527 8.53539e-05 -5.49555e-05 0.000126004 6.69956e-05
-1.80006e-05 -1.10865e-05 0.000140786 3.55244e-05 -1.35899e-05 3.29018e-05
4.86374e-05 8.08239e-05 0.000118613 -3.91007e-05 0.000165582 1.96695e-05
-1.97887e-05 -2.63453e-05 0.00010705 -1.78814e-06 -5.6386e-05 -3.93391e-06
7.27177e-06 5.14984e-05 7.31945e-05 -1.46627e-05 0.000156879 -2.16961e-05
4.88758e-06 2.44379e-05 0.00010848 1.21593e-05 -2.77758e-05 5.22137e-05
3.20673e-05 8.96454e-05 6.47307e-05 2.45571e-05 0.000142217 -1.52588e-05
-8.10623e-06 8.70228e-05 0.000123858 -2.45571e-05 1.77622e-05 4.98295e-05
-1.4782e-05 1.60933e-05 7.77245e-05 6.31809e-06 7.95126e-05 -5.65052e-05
2.26498e-06 0.000106692 0.00015378 -4.66108e-05 5.45979e-05;
#X coords 0 0.5 100 -0.5 200 140 1;
#X restore 100 330 graph;
#N canvas 0 0 450 300 (subpatch) 0;
#X array sr18LIn 100 float 3 black black;
#A 0 0.000119686 0.000116587 0.000144124 0.000139713 0.000106573 9.38177e-05
0.000120163 0.000104666 9.03606e-05 0.000142813 8.30889e-05 0.000144839
0.00012064 0.000140667 9.58443e-05 0.000163674 9.62019e-05 0.000111103
0.000126958 0.000124216 0.000151038 0.000102401 0.000123858 9.71556e-05
0.000120401 0.00014782 8.51154e-05 0.000128388 0.000114799 7.37906e-05
0.000131845 0.000158787 9.56059e-05 0.000115991 0.000105977 0.000131488
0.000132561 9.11951e-05 0.000119686 0.000120401 8.53539e-05 9.85861e-05
0.0001266 0.00012207 0.000112772 0.000121236 0.00010848 0.000110388
0.000163317 0.000101328 0.000108719 0.000125766 0.000113964 7.89166e-05
0.000142336 0.000103712 9.25064e-05 9.39369e-05 0.000111341 0.000129342
0.000130773 0.000146389 0.000141859 0.000104785 0.00011301 0.000137448
0.000107288 0.000105381 0.000132918 0.000106573 8.57115e-05 0.000104427
0.000126243 0.000125289 7.09295e-05 0.000104308 0.000114799 0.000105143
0.000130177 0.000123858 0.000119567 0.000111938 0.000118375 9.82285e-05
0.000145316 0.000105381 0.000128388 0.000121236 0.000108838 8.23736e-05
0.000108361 0.000112653 0.000102282 0.000115395 0.000100493 0.000135183
0.000145197 0.000103831 0.000128388 0.000132799;
#X coords 0 0.5 100 -0.5 200 140 1;
#X restore 310 630 graph;
#X obj 400 110 s~ sr18L;
#X obj 470 110 s~ sr18R;
#X obj 540 110 s~ sb8;
#N canvas 0 0 450 300 (subpatch) 0;
#X array sr18RIn 100 float 3 black black;
#A 0 -6.28233e-05 4.8995e-05 -6.38962e-05 -3.91007e-05 4.05312e-06
-2.71797e-05 -7.65324e-05 -7.77245e-05 -3.37362e-05 -4.64916e-05 -3.62396e-05
1.01328e-05 -1.43051e-05 -4.91142e-05 1.90735e-06 -3.50475e-05 -7.37906e-05
-1.34707e-05 -1.51396e-05 -4.11272e-05 -4.07696e-05 -5.3525e-05 1.23978e-05
-4.81606e-05 4.88758e-06 -1.07288e-05 -8.74996e-05 1.77622e-05 -6.44922e-05
-3.02792e-05 -3.14713e-05 -1.14441e-05 -4.30346e-05 6.79493e-06 -9.77516e-06
6.07967e-05 8.46386e-06 1.52588e-05 -6.75917e-05 -1.26362e-05 2.6226e-06
-1.13249e-05 -1.5378e-05 -5.45979e-05 -1.77622e-05 -4.18425e-05 -3.3021e-05
-4.22001e-05 -6.00815e-05 -5.32866e-05 -4.33922e-05 -2.98023e-06 -3.15905e-05
-2.32458e-05 1.83582e-05 2.67029e-05 -5.96047e-05 -4.72069e-05 1.69277e-05
1.4782e-05 -5.07832e-05 1.35899e-05 -1.66893e-05 -7.22408e-05 -2.43187e-05
-6.07967e-06 -2.95639e-05 -6.69956e-05 -3.06368e-05 -5.66244e-05 -4.11272e-05
-5.36442e-06 -7.51019e-06 -1.8239e-05 -1.14441e-05 -2.67029e-05 -6.74725e-05
-7.04527e-05 -5.48363e-05 -6.6042e-05 -0.000116229 -4.18425e-05 -7.03335e-06
8.9407e-06 -1.38283e-05 -1.58548e-05 -1.70469e-05 -8.30889e-05 -2.39611e-05
-6.91414e-06 -2.3365e-05 -6.61612e-05 -1.74046e-05 -4.64916e-06 7.82013e-05
-3.65973e-05 -2.59876e-05 -4.88758e-05 -5.48363e-06 -7.39098e-06;
#X coords 0 0.5 100 -0.5 200 140 1;
#X restore 520 330 graph;
#N canvas 0 0 450 300 (subpatch) 0;
#X array sb8In 100 float 3 black black;
#A 0 0.0009197 -0.00279868 0.000479698 0.00073266 -0.00215709 2.72989e-05
0.000872851 -0.000208974 -0.000659585 0.00011611 0.00129676 -0.00140142
-0.000221849 0.000885129 -0.00204265 0.00159884 0.00157702 -0.00141871
1.50204e-05 0.000819206 -0.00214493 -0.000250101 -0.000163794 -0.000331998
-0.00127423 -0.0016557 0.000798106 -0.0018208 0.000816107 0.000907183
-0.00145388 -0.000577688 -0.00108814 -0.00247908 0.0016824 -0.00211167
-0.00125563 -0.00130308 0.000507951 -0.000356197 -0.000971198 0.000476956
-0.000829339 0.00149202 -0.000914693 5.71013e-05 0.00178039 0.000624776
-0.000754833 -0.000730753 -0.000678897 0.000559688 -6.56843e-05 0.00140309
-0.000814319 -0.00140679 0.000482082 -0.000739217 0.000251055 -0.000566363
0.000113368 -0.00121391 0.000609994 0.00181246 -0.000965953 -4.62532e-05
0.00212204 0.00039804 -0.00190973 0.00150144 0.00167418 -0.00148678
-0.00123692 -9.2268e-05 -0.00233912 -0.0014782 0.00103474 -0.000193834
0.000959158 0.000957489 0.00124848 -0.000410318 0.00137126 -0.00132072
-0.00133073 -0.00143933 -0.00158298 0.000157714 -0.000209808 0.00101686
-0.00134587 0.00209391 -0.000239968 -0.00192308 -0.00117517 0.00119269
0.000523686 0.000531077 9.89437e-06 -0.000625134;
#X coords 0 0.5 100 -0.5 200 140 1;
#X restore 520 480 graph;
#X obj 220 290 tabwrite~ sr18LIn;
#X obj 360 290 tabwrite~ sr18RIn;
#X obj 490 290 tabwrite~ sb8In;
#N canvas 0 0 450 300 (subpatch) 0;
#X array skulptIn 100 float 2 black black;
#X coords 0 0.5 100 -0.5 200 140 1;
#X restore 310 330 graph;
#X msg 110 140 1;
#X msg 170 140 0;
#X connect 11 0 7 0;
#X connect 11 0 5 0;
#X connect 11 0 6 0;
#X connect 11 0 10 0;
#X connect 11 0 15 0;
#X connect 11 0 23 0;
#X connect 11 0 24 0;
#X connect 11 0 25 0;
#X connect 12 0 11 0;
#X connect 13 0 14 0;
#X connect 13 0 15 0;
#X connect 13 1 3 0;
#X connect 13 1 7 0;
#X connect 13 2 2 0;
#X connect 13 2 5 0;
#X connect 13 3 1 0;
#X connect 13 3 6 0;
#X connect 13 4 0 0;
#X connect 13 4 10 0;
#X connect 13 5 18 0;
#X connect 13 5 23 0;
#X connect 13 6 19 0;
#X connect 13 6 24 0;
#X connect 13 7 20 0;
#X connect 13 7 25 0;
#X connect 27 0 12 0;
#X connect 28 0 12 0;
#X restore 200 40 pd audioIn;
#N canvas 187 714 235 336 mixers 0;
#N canvas 90 341 1584 375 m1 0;
#X obj 1060 120 r~ uno;
#X obj 100 60 r vol2-1;
#X obj 100 160 *~ 0;
#X floatatom 100 120 5 0 0 0 - - -, f 5;
#X obj 180 160 *~ 0;
#X floatatom 180 120 5 0 0 0 - - -, f 5;
#X obj 180 60 r vol2-2;
#X obj 260 160 *~ 0;
#X floatatom 260 120 5 0 0 0 - - -, f 5;
#X obj 340 160 *~ 0;
#X floatatom 340 120 5 0 0 0 - - -, f 5;
#X obj 260 60 r vol2-3;
#X obj 340 60 r vol2-4;
#X obj 420 160 *~ 0;
#X floatatom 420 120 5 0 0 0 - - -, f 5;
#X obj 500 160 *~ 0;
#X floatatom 500 120 5 0 0 0 - - -, f 5;
#X obj 580 160 *~ 0;
#X floatatom 580 120 5 0 0 0 - - -, f 5;
#X obj 660 160 *~ 0;
#X floatatom 660 120 5 0 0 0 - - -, f 5;
#X obj 740 160 *~ 0;
#X floatatom 740 120 5 0 0 0 - - -, f 5;
#X obj 820 160 *~ 0;
#X floatatom 820 120 5 0 0 0 - - -, f 5;
#X obj 900 160 *~ 0;
#X floatatom 900 120 5 0 0 0 - - -, f 5;
#X obj 980 160 *~ 0;
#X floatatom 980 120 5 0 0 0 - - -, f 5;
#X obj 420 60 r vol2-5;
#X obj 500 60 r vol2-6;
#X obj 580 60 r vol2-7;
#X obj 660 60 r vol2-8;
#X obj 740 60 r vol2-9;
#X obj 820 60 r vol2-10;
#X obj 900 60 r vol2-11;
#X obj 980 60 r vol2-12;
#X obj 100 210 s~ uno1;
#X obj 180 210 s~ uno2;
#X obj 260 210 s~ uno3;
#X obj 340 210 s~ uno4;
#X obj 420 210 s~ uno5;
#X obj 500 210 s~ uno6;
#X obj 580 210 s~ uno7;
#X obj 660 210 s~ uno8;
#X obj 740 210 s~ uno9;
#X obj 820 210 s~ uno10;
#X obj 900 210 s~ uno11;
#X obj 980 210 s~ uno12;
#X obj 1210 160 metro 250;
#X msg 1210 90 1;
#X msg 1230 120 0;
#X obj 1210 200 bng 15 250 50 0 empty empty empty 17 7 0 10 #fcfcfc
#000000 #000000;
#X obj 1210 230 tabwrite~ ch2;
#N canvas 0 0 450 300 (subpatch) 0;
#X array ch2 100 float 3 black black;
#A 0 -0.015905 -0.0162569 -0.0161835 -0.0160105 -0.0161833 -0.0158846
-0.0154848 -0.0157082 -0.0154514 -0.0149032 -0.0145634 -0.0146691 -0.0143027
-0.0139406 -0.0139962 -0.0137901 -0.0137047 -0.0138952 -0.0134059 -0.0132349
-0.0132427 -0.0135558 -0.0131885 -0.0136815 -0.0137863 -0.0134157 -0.013864
-0.0143627 -0.014181 -0.0142792 -0.0149329 -0.0149924 -0.0150007 -0.0155183
-0.0157564 -0.0159578 -0.0165993 -0.0163733 -0.0166335 -0.017096 -0.0170779
-0.0169871 -0.0169992 -0.0174987 -0.0175163 -0.0173352 -0.0179497 -0.0177773
-0.0176119 -0.0180378 -0.0180179 -0.0178674 -0.018366 -0.0181328 -0.0178387
-0.0181987 -0.0181919 -0.0179546 -0.0179857 -0.0182587 -0.0179877 -0.0181671
-0.0183911 -0.0180559 -0.0180389 -0.0183615 -0.0180762 -0.0183185 -0.0185246
-0.0180523 -0.0179609 -0.0182378 -0.0182394 -0.0179403 -0.018389 -0.0184038
-0.0181561 -0.018512 -0.018414 -0.0182279 -0.0185137 -0.0184523 -0.0181751
-0.0183765 -0.0185069 -0.0183162 -0.0182513 -0.018509 -0.0182107 -0.0184954
-0.0185223 -0.0181149 -0.0181125 -0.0183692 -0.0180539 -0.0179416 -0.0181445
-0.0178504 -0.0177436 -0.0180444;
#X coords 0 1 100 -1 200 140 1;
#X restore 1300 70 graph;
#X connect 0 0 2 0;
#X connect 0 0 4 0;
#X connect 0 0 7 0;
#X connect 0 0 9 0;
#X connect 0 0 13 0;
#X connect 0 0 15 0;
#X connect 0 0 17 0;
#X connect 0 0 19 0;
#X connect 0 0 21 0;
#X connect 0 0 23 0;
#X connect 0 0 25 0;
#X connect 0 0 27 0;
#X connect 1 0 3 0;
#X connect 2 0 37 0;
#X connect 3 0 2 1;
#X connect 4 0 38 0;
#X connect 5 0 4 1;
#X connect 6 0 5 0;
#X connect 7 0 39 0;
#X connect 8 0 7 1;
#X connect 9 0 40 0;
#X connect 10 0 9 1;
#X connect 11 0 8 0;
#X connect 12 0 10 0;
#X connect 13 0 41 0;
#X connect 14 0 13 1;
#X connect 15 0 42 0;
#X connect 16 0 15 1;
#X connect 17 0 43 0;
#X connect 18 0 17 1;
#X connect 19 0 44 0;
#X connect 20 0 19 1;
#X connect 21 0 45 0;
#X connect 22 0 21 1;
#X connect 23 0 46 0;
#X connect 24 0 23 1;
#X connect 25 0 47 0;
#X connect 26 0 25 1;
#X connect 27 0 48 0;
#X connect 28 0 27 1;
#X connect 29 0 14 0;
#X connect 30 0 16 0;
#X connect 31 0 18 0;
#X connect 32 0 20 0;
#X connect 33 0 22 0;
#X connect 34 0 24 0;
#X connect 35 0 26 0;
#X connect 36 0 28 0;
#X connect 49 0 52 0;
#X connect 50 0 49 0;
#X connect 51 0 49 0;
#X connect 52 0 53 0;
#X restore 100 70 pd m1;
#N canvas 24 81 450 375 m0 0;
#X obj 100 180 *~ 0;
#X floatatom 100 140 5 0 0 0 - - -, f 5;
#X obj 180 180 *~ 0;
#X floatatom 180 140 5 0 0 0 - - -, f 5;
#X obj 260 180 *~ 0;
#X floatatom 260 140 5 0 0 0 - - -, f 5;
#X obj 340 180 *~ 0;
#X floatatom 340 140 5 0 0 0 - - -, f 5;
#X obj 420 180 *~ 0;
#X floatatom 420 140 5 0 0 0 - - -, f 5;
#X obj 500 180 *~ 0;
#X floatatom 500 140 5 0 0 0 - - -, f 5;
#X obj 580 180 *~ 0;
#X floatatom 580 140 5 0 0 0 - - -, f 5;
#X obj 660 180 *~ 0;
#X floatatom 660 140 5 0 0 0 - - -, f 5;
#X obj 740 180 *~ 0;
#X floatatom 740 140 5 0 0 0 - - -, f 5;
#X obj 820 180 *~ 0;
#X floatatom 820 140 5 0 0 0 - - -, f 5;
#X obj 900 180 *~ 0;
#X floatatom 900 140 5 0 0 0 - - -, f 5;
#X obj 980 180 *~ 0;
#X floatatom 980 140 5 0 0 0 - - -, f 5;
#X obj 1060 140 r~ mf;
#X obj 100 80 r vol1-1;
#X obj 180 80 r vol1-2;
#X obj 260 80 r vol1-3;
#X obj 340 80 r vol1-4;
#X obj 420 80 r vol1-5;
#X obj 500 80 r vol1-6;
#X obj 580 80 r vol1-7;
#X obj 660 80 r vol1-8;
#X obj 740 80 r vol1-9;
#X obj 820 80 r vol1-10;
#X obj 900 80 r vol1-11;
#X obj 980 80 r vol1-12;
#X obj 100 230 s~ mf1;
#X obj 180 230 s~ mf2;
#X obj 260 230 s~ mf3;
#X obj 340 230 s~ mf4;
#X obj 420 230 s~ mf5;
#X obj 500 230 s~ mf6;
#X obj 580 230 s~ mf7;
#X obj 660 230 s~ mf8;
#X obj 740 230 s~ mf9;
#X obj 820 230 s~ mf10;
#X obj 900 230 s~ mf11;
#X obj 980 230 s~ mf12;
#X connect 0 0 37 0;
#X connect 1 0 0 1;
#X connect 2 0 38 0;
#X connect 3 0 2 1;
#X connect 4 0 39 0;
#X connect 5 0 4 1;
#X connect 6 0 40 0;
#X connect 7 0 6 1;
#X connect 8 0 41 0;
#X connect 9 0 8 1;
#X connect 10 0 42 0;
#X connect 11 0 10 1;
#X connect 12 0 43 0;
#X connect 13 0 12 1;
#X connect 14 0 44 0;
#X connect 15 0 14 1;
#X connect 16 0 45 0;
#X connect 17 0 16 1;
#X connect 18 0 46 0;
#X connect 19 0 18 1;
#X connect 20 0 47 0;
#X connect 21 0 20 1;
#X connect 22 0 48 0;
#X connect 23 0 22 1;
#X connect 24 0 0 0;
#X connect 24 0 2 0;
#X connect 24 0 4 0;
#X connect 24 0 6 0;
#X connect 24 0 8 0;
#X connect 24 0 10 0;
#X connect 24 0 12 0;
#X connect 24 0 14 0;
#X connect 24 0 16 0;
#X connect 24 0 18 0;
#X connect 24 0 20 0;
#X connect 24 0 22 0;
#X connect 25 0 1 0;
#X connect 26 0 3 0;
#X connect 27 0 5 0;
#X connect 28 0 7 0;
#X connect 29 0 9 0;
#X connect 30 0 11 0;
#X connect 31 0 13 0;
#X connect 32 0 15 0;
#X connect 33 0 17 0;
#X connect 34 0 19 0;
#X connect 35 0 21 0;
#X connect 36 0 23 0;
#X restore 100 50 pd m0;
#N canvas 43 648 1226 330 m2 0;
#X obj 100 180 *~ 0;
#X floatatom 100 140 5 0 0 0 - - -, f 5;
#X obj 180 180 *~ 0;
#X floatatom 180 140 5 0 0 0 - - -, f 5;
#X obj 260 180 *~ 0;
#X floatatom 260 140 5 0 0 0 - - -, f 5;
#X obj 340 180 *~ 0;
#X floatatom 340 140 5 0 0 0 - - -, f 5;
#X obj 420 180 *~ 0;
#X floatatom 420 140 5 0 0 0 - - -, f 5;
#X obj 500 180 *~ 0;
#X floatatom 500 140 5 0 0 0 - - -, f 5;
#X obj 580 180 *~ 0;
#X floatatom 580 140 5 0 0 0 - - -, f 5;
#X obj 660 180 *~ 0;
#X floatatom 660 140 5 0 0 0 - - -, f 5;
#X obj 740 180 *~ 0;
#X floatatom 740 140 5 0 0 0 - - -, f 5;
#X obj 820 180 *~ 0;
#X floatatom 820 140 5 0 0 0 - - -, f 5;
#X obj 900 180 *~ 0;
#X floatatom 900 140 5 0 0 0 - - -, f 5;
#X obj 980 180 *~ 0;
#X floatatom 980 140 5 0 0 0 - - -, f 5;
#X obj 100 80 r vol3-1;
#X obj 180 80 r vol3-2;
#X obj 260 80 r vol3-3;
#X obj 340 80 r vol3-4;
#X obj 420 80 r vol3-5;
#X obj 500 80 r vol3-6;
#X obj 580 80 r vol3-7;
#X obj 660 80 r vol3-8;
#X obj 740 80 r vol3-9;
#X obj 820 80 r vol3-10;
#X obj 900 80 r vol3-11;
#X obj 980 80 r vol3-12;
#X obj 1060 140 r~ skulpt;
#X obj 100 230 s~ skulpt1;
#X obj 180 230 s~ skulpt2;
#X obj 260 230 s~ skulpt3;
#X obj 340 230 s~ skulpt4;
#X obj 420 230 s~ skulpt5;
#X obj 500 230 s~ skulpt6;
#X obj 580 230 s~ skulpt7;
#X obj 660 230 s~ skulpt8;
#X obj 740 230 s~ skulpt9;
#X obj 820 230 s~ skulpt10;
#X obj 900 230 s~ skulpt11;
#X obj 980 230 s~ skulpt12;
#X connect 0 0 37 0;
#X connect 1 0 0 1;
#X connect 2 0 38 0;
#X connect 3 0 2 1;
#X connect 4 0 39 0;
#X connect 5 0 4 1;
#X connect 6 0 40 0;
#X connect 7 0 6 1;
#X connect 8 0 41 0;
#X connect 9 0 8 1;
#X connect 10 0 42 0;
#X connect 11 0 10 1;
#X connect 12 0 43 0;
#X connect 13 0 12 1;
#X connect 14 0 44 0;
#X connect 15 0 14 1;
#X connect 16 0 45 0;
#X connect 17 0 16 1;
#X connect 18 0 46 0;
#X connect 19 0 18 1;
#X connect 20 0 47 0;
#X connect 21 0 20 1;
#X connect 22 0 48 0;
#X connect 23 0 22 1;
#X connect 24 0 1 0;
#X connect 25 0 3 0;
#X connect 26 0 5 0;
#X connect 27 0 7 0;
#X connect 28 0 9 0;
#X connect 29 0 11 0;
#X connect 30 0 13 0;
#X connect 31 0 15 0;
#X connect 32 0 17 0;
#X connect 33 0 19 0;
#X connect 34 0 21 0;
#X connect 35 0 23 0;
#X connect 36 0 0 0;
#X connect 36 0 2 0;
#X connect 36 0 4 0;
#X connect 36 0 6 0;
#X connect 36 0 8 0;
#X connect 36 0 10 0;
#X connect 36 0 12 0;
#X connect 36 0 14 0;
#X connect 36 0 16 0;
#X connect 36 0 18 0;
#X connect 36 0 20 0;
#X connect 36 0 22 0;
#X restore 100 90 pd m2;
#N canvas 43 666 1226 380 m3 0;
#X obj 100 180 *~ 0;
#X floatatom 100 140 5 0 0 0 - - -, f 5;
#X obj 180 180 *~ 0;
#X floatatom 180 140 5 0 0 0 - - -, f 5;
#X obj 260 180 *~ 0;
#X floatatom 260 140 5 0 0 0 - - -, f 5;
#X obj 340 180 *~ 0;
#X floatatom 340 140 5 0 0 0 - - -, f 5;
#X obj 420 180 *~ 0;
#X floatatom 420 140 5 0 0 0 - - -, f 5;
#X obj 500 180 *~ 0;
#X floatatom 500 140 5 0 0 0 - - -, f 5;
#X obj 580 180 *~ 0;
#X floatatom 580 140 5 0 0 0 - - -, f 5;
#X obj 660 180 *~ 0;
#X floatatom 660 140 5 0 0 0 - - -, f 5;
#X obj 740 180 *~ 0;
#X floatatom 740 140 5 0 0 0 - - -, f 5;
#X obj 820 180 *~ 0;
#X floatatom 820 140 5 0 0 0 - - -, f 5;
#X obj 900 180 *~ 0;
#X floatatom 900 140 5 0 0 0 - - -, f 5;
#X obj 980 180 *~ 0;
#X floatatom 980 140 5 0 0 0 - - -, f 5;
#X obj 100 80 r vol4-1;
#X obj 180 80 r vol4-2;
#X obj 260 80 r vol4-3;
#X obj 340 80 r vol4-4;
#X obj 420 80 r vol4-5;
#X obj 500 80 r vol4-6;
#X obj 580 80 r vol4-7;
#X obj 660 80 r vol4-8;
#X obj 740 80 r vol4-9;
#X obj 820 80 r vol4-10;
#X obj 900 80 r vol4-11;
#X obj 980 80 r vol4-12;
#X obj 1060 140 r~ td3;
#X obj 100 230 s~ td31;
#X obj 180 230 s~ td32;
#X obj 260 230 s~ td33;
#X obj 340 230 s~ td34;
#X obj 420 230 s~ td35;
#X obj 500 230 s~ td36;
#X obj 580 230 s~ td37;
#X obj 660 230 s~ td38;
#X obj 740 230 s~ td39;
#X obj 820 230 s~ td310;
#X obj 900 230 s~ td311;
#X obj 980 230 s~ td312;
#X connect 0 0 37 0;
#X connect 1 0 0 1;
#X connect 2 0 38 0;
#X connect 3 0 2 1;
#X connect 4 0 39 0;
#X connect 5 0 4 1;
#X connect 6 0 40 0;
#X connect 7 0 6 1;
#X connect 8 0 41 0;
#X connect 9 0 8 1;
#X connect 10 0 42 0;
#X connect 11 0 10 1;
#X connect 12 0 43 0;
#X connect 13 0 12 1;
#X connect 14 0 44 0;
#X connect 15 0 14 1;
#X connect 16 0 45 0;
#X connect 17 0 16 1;
#X connect 18 0 46 0;
#X connect 19 0 18 1;
#X connect 20 0 47 0;
#X connect 21 0 20 1;
#X connect 22 0 48 0;
#X connect 23 0 22 1;
#X connect 24 0 1 0;
#X connect 25 0 3 0;
#X connect 26 0 5 0;
#X connect 27 0 7 0;
#X connect 28 0 9 0;
#X connect 29 0 11 0;
#X connect 30 0 13 0;
#X connect 31 0 15 0;
#X connect 32 0 17 0;
#X connect 33 0 19 0;
#X connect 34 0 21 0;
#X connect 35 0 23 0;
#X connect 36 0 0 0;
#X connect 36 0 2 0;
#X connect 36 0 4 0;
#X connect 36 0 6 0;
#X connect 36 0 8 0;
#X connect 36 0 10 0;
#X connect 36 0 12 0;
#X connect 36 0 14 0;
#X connect 36 0 16 0;
#X connect 36 0 18 0;
#X connect 36 0 20 0;
#X connect 36 0 22 0;
#X restore 100 110 pd m3;
#X restore 200 60 pd mixers;
#N canvas 53 368 1348 706 audioOut 1;
#X obj 100 80 r~ mf1;
#X obj 100 180 r~ skulpt1;
#X obj 200 80 r~ mf2;
#X obj 300 80 r~ mf3;
#X obj 400 80 r~ mf4;
#X obj 500 80 r~ mf5;
#X obj 600 80 r~ mf6;
#X obj 700 80 r~ mf7;
#X obj 800 80 r~ mf8;
#X obj 900 80 r~ mf9;
#X obj 1000 80 r~ mf10;
#X obj 1100 80 r~ mf11;
#X obj 1200 80 r~ mf12;
#X obj 200 180 r~ skulpt2;
#X obj 300 180 r~ skulpt3;
#X obj 400 180 r~ skulpt4;
#X obj 600 180 r~ skulpt6;
#X obj 700 180 r~ skulpt7;
#X obj 800 180 r~ skulpt8;
#X obj 900 180 r~ skulpt9;
#X obj 1000 180 r~ skulpt10;
#X obj 1100 180 r~ skulpt11;
#X obj 1200 180 r~ skulpt12;
#X obj 500 180 r~ skulpt5;
#X obj 100 130 r~ uno1;
#X obj 200 130 r~ uno2;
#X obj 300 130 r~ uno3;
#X obj 400 130 r~ uno4;
#X obj 500 130 r~ uno5;
#X obj 600 130 r~ uno6;
#X obj 700 130 r~ uno7;
#X obj 800 130 r~ uno8;
#X obj 900 130 r~ uno9;
#X obj 1000 130 r~ uno10;
#X obj 1100 130 r~ uno11;
#X obj 1200 130 r~ uno12;
#X obj 100 400 dac~ 1 2 3 4 5 6 7 8 9 10 11 12;
#X obj 100 230 r~ td31;
#X obj 200 230 r~ td32;
#X obj 300 230 r~ td33;
#X obj 400 230 r~ td34;
#X obj 500 230 r~ td35;
#X obj 600 230 r~ td36;
#X obj 700 230 r~ td37;
#X obj 800 230 r~ td38;
#X obj 900 230 r~ td39;
#X obj 1000 230 r~ td310;
#X obj 1100 230 r~ td311;
#X obj 1200 230 r~ td312;
#N canvas 0 0 450 300 (subpatch) 0;
#X array ch1 100 float 2 black black;
#X coords 0 1 100 -1 200 140 1;
#X restore 680 420 graph;
#X obj 30 450 metro 250;
#X msg 30 380 1;
#X msg 50 410 0;
#X obj 30 490 bng 15 250 50 0 empty empty empty 17 7 0 10 #fcfcfc #000000
#000000;
#X obj 30 520 tabwrite~ ch1;
#X obj 1000 300 r~ sr18L;
#X connect 0 0 36 0;
#X connect 0 0 54 0;
#X connect 1 0 36 0;
#X connect 1 0 54 0;
#X connect 2 0 36 1;
#X connect 3 0 36 2;
#X connect 4 0 36 3;
#X connect 5 0 36 4;
#X connect 6 0 36 5;
#X connect 7 0 36 6;
#X connect 8 0 36 7;
#X connect 9 0 36 8;
#X connect 10 0 36 9;
#X connect 11 0 36 10;
#X connect 12 0 36 11;
#X connect 13 0 36 1;
#X connect 14 0 36 2;
#X connect 15 0 36 3;
#X connect 16 0 36 5;
#X connect 17 0 36 6;
#X connect 18 0 36 7;
#X connect 19 0 36 8;
#X connect 20 0 36 9;
#X connect 21 0 36 10;
#X connect 22 0 36 11;
#X connect 23 0 36 4;
#X connect 24 0 36 0;
#X connect 24 0 54 0;
#X connect 25 0 36 1;
#X connect 26 0 36 2;
#X connect 27 0 36 3;
#X connect 28 0 36 4;
#X connect 29 0 36 5;
#X connect 30 0 36 6;
#X connect 31 0 36 7;
#X connect 32 0 36 8;
#X connect 33 0 36 9;
#X connect 34 0 36 10;
#X connect 35 0 36 11;
#X connect 37 0 36 0;
#X connect 37 0 54 0;
#X connect 38 0 36 1;
#X connect 39 0 36 2;
#X connect 40 0 36 3;
#X connect 41 0 36 4;
#X connect 42 0 36 5;
#X connect 43 0 36 6;
#X connect 44 0 36 7;
#X connect 45 0 36 8;
#X connect 46 0 36 9;
#X connect 47 0 36 10;
#X connect 48 0 36 11;
#X connect 50 0 53 0;
#X connect 51 0 50 0;
#X connect 52 0 50 0;
#X connect 53 0 54 0;
#X connect 55 0 36 9;
#X connect 55 0 36 5;
#X restore 80 80 pd audioOut;
#X obj 200 180 loadbang;
#X msg 200 220 \; pd dsp 1;
